<svg xmlns="http://www.w3.org/2000/svg" width="1200" height="860" viewBox="0 0 1200 860">

<rect width="1200" height="860" fill="#0B1120"/>

<!-- TERMINAL -->

<rect x="35"
      y="55"
      width="1130"
      height="750"
      rx="20"
      fill="#0F172A"
      stroke="#1E293B"
      stroke-width="2"/>

<!-- HEADER -->

<rect x="35"
      y="55"
      width="1130"
      height="50"
      rx="20"
      fill="#1E1B4B"/>

<!-- DOTS -->

<circle cx="65" cy="80" r="8" fill="#FF5F56"/>
<circle cx="90" cy="80" r="8" fill="#FFBD2E"/>
<circle cx="115" cy="80" r="8" fill="#27C93F"/>

<!-- HEADER TEXT -->

<text x="600"
      y="86"
      fill="#CBD5E1"
      font-size="17"
      font-family="monospace"
      text-anchor="middle">
piyush@github ~ experience.log
</text>

<!-- COMMAND -->

<text x="60"
      y="145"
      fill="#FF5F56"
      font-size="22"
      font-family="monospace">
$ cat experience.log --timeline
</text>

<!-- TIMELINE -->

<line x1="105"
      y1="185"
      x2="105"
      y2="720"
      stroke="#334155"
      stroke-width="4"/>

<!-- ROLE 1 -->

<circle cx="105" cy="210" r="13" fill="#FF5F56"/>
<circle cx="105" cy="210" r="5" fill="#0F172A"/>

<rect x="145"
      y="180"
      width="930"
      height="115"
      rx="16"
      fill="#111827"
      stroke="#1E293B"/>

<rect x="145"
      y="180"
      width="6"
      height="115"
      rx="4"
      fill="#FF5F56"/>

<text x="175"
      y="220"
      fill="#FF5F56"
      font-size="25"
      font-family="monospace"
      font-weight="bold">
CU-TBI (Chandigarh University)
</text>

<text x="175"
      y="252"
      fill="#38BDF8"
      font-size="18"
      font-family="monospace">
Web Developer and Growth Operations Executive
</text>

<text x="175"
      y="282"
      fill="#CBD5E1"
      font-size="15"
      font-family="monospace">
Developed scalable startup systems and digital products
</text>

<text x="900"
      y="220"
      fill="#22C55E"
      font-size="16"
      font-family="monospace">
May 2025 - Present
</text>

<!-- ROLE 2 -->

<circle cx="105" cy="360" r="13" fill="#A855F7"/>
<circle cx="105" cy="360" r="5" fill="#0F172A"/>

<rect x="145"
      y="330"
      width="930"
      height="115"
      rx="16"
      fill="#111827"
      stroke="#1E293B"/>

<rect x="145"
      y="330"
      width="6"
      height="115"
      rx="4"
      fill="#A855F7"/>

<text x="175"
      y="370"
      fill="#C084FC"
      font-size="25"
      font-family="monospace"
      font-weight="bold">
Reitso
</text>

<text x="175"
      y="402"
      fill="#38BDF8"
      font-size="18"
      font-family="monospace">
Founder and Product Engineer
</text>

<text x="175"
      y="432"
      fill="#CBD5E1"
      font-size="15"
      font-family="monospace">
Building AI-powered real estate ecosystem platform
</text>

<text x="930"
      y="370"
      fill="#22C55E"
      font-size="16"
      font-family="monospace">
2025 - Present
</text>

<!-- ROLE 3 -->

<circle cx="105" cy="510" r="13" fill="#FACC15"/>
<circle cx="105" cy="510" r="5" fill="#0F172A"/>

<rect x="145"
      y="480"
      width="930"
      height="115"
      rx="16"
      fill="#111827"
      stroke="#1E293B"/>

<rect x="145"
      y="480"
      width="6"
      height="115"
      rx="4"
      fill="#FACC15"/>

<text x="175"
      y="520"
      fill="#FACC15"
      font-size="25"
      font-family="monospace"
      font-weight="bold">
DevNovate Technologies
</text>

<text x="175"
      y="552"
      fill="#38BDF8"
      font-size="18"
      font-family="monospace">
Engineering and Product Operations
</text>

<text x="175"
      y="582"
      fill="#CBD5E1"
      font-size="15"
      font-family="monospace">
Managed engineering systems and startup operations
</text>

<text x="885"
      y="520"
      fill="#22C55E"
      font-size="16"
      font-family="monospace">
Dec 2024 - May 2025
</text>

<!-- ROLE 4 -->

<circle cx="105" cy="660" r="13" fill="#38BDF8"/>
<circle cx="105" cy="660" r="5" fill="#0F172A"/>

<rect x="145"
      y="630"
      width="930"
      height="115"
      rx="16"
      fill="#111827"
      stroke="#1E293B"/>

<rect x="145"
      y="630"
      width="6"
      height="115"
      rx="4"
      fill="#38BDF8"/>

<text x="175"
      y="670"
      fill="#60A5FA"
      font-size="25"
      font-family="monospace"
      font-weight="bold">
Technicia 2025
</text>

<text x="175"
      y="702"
      fill="#38BDF8"
      font-size="18"
      font-family="monospace">
Secretary General - IT and Tech
</text>

<text x="175"
      y="732"
      fill="#CBD5E1"
      font-size="15"
      font-family="monospace">
Leading technical operations and large-scale innovation events
</text>

<text x="930"
      y="670"
      fill="#22C55E"
      font-size="16"
      font-family="monospace">
2025 - Present
</text>

<!-- FOOTER -->

<circle cx="60" cy="785" r="4" fill="#22C55E"/>

<text x="75"
      y="790"
      fill="#22C55E"
      font-size="15"
      font-family="monospace">
main
</text>

<text x="1070"
      y="790"
      fill="#CBD5E1"
      font-size="15"
      font-family="monospace"
      text-anchor="end">
4 roles • engineering timeline
</text>

</svg>