<svg xmlns="http://www.w3.org/2000/svg" width="1200" height="720" viewBox="0 0 1200 720">

<defs>

  <linearGradient id="bg" x1="0" y1="0" x2="1200" y2="720">
    <stop offset="0%" stop-color="#050816"/>
    <stop offset="100%" stop-color="#0B1120"/>
  </linearGradient>

  <linearGradient id="header" x1="0" y1="0" x2="1000" y2="0">
    <stop offset="0%" stop-color="#1E1B4B"/>
    <stop offset="100%" stop-color="#111827"/>
  </linearGradient>

  <linearGradient id="pythonBar" x1="0" y1="0" x2="800" y2="0">
    <stop offset="0%" stop-color="#F97316"/>
    <stop offset="100%" stop-color="#FACC15"/>
  </linearGradient>

  <linearGradient id="jsBar" x1="0" y1="0" x2="800" y2="0">
    <stop offset="0%" stop-color="#60A5FA"/>
    <stop offset="100%" stop-color="#2563EB"/>
  </linearGradient>

  <linearGradient id="reactBar" x1="0" y1="0" x2="800" y2="0">
    <stop offset="0%" stop-color="#FACC15"/>
    <stop offset="100%" stop-color="#EAB308"/>
  </linearGradient>

  <linearGradient id="nodeBar" x1="0" y1="0" x2="800" y2="0">
    <stop offset="0%" stop-color="#22C55E"/>
    <stop offset="100%" stop-color="#16A34A"/>
  </linearGradient>

  <linearGradient id="dbBar" x1="0" y1="0" x2="800" y2="0">
    <stop offset="0%" stop-color="#A855F7"/>
    <stop offset="100%" stop-color="#7C3AED"/>
  </linearGradient>

</defs>

<!-- BACKGROUND -->

<rect width="1200" height="720" fill="url(#bg)"/>

<!-- GRID -->

<g opacity="0.05">

  <path d="M0 60 H1200" stroke="white"/>
  <path d="M0 120 H1200" stroke="white"/>
  <path d="M0 180 H1200" stroke="white"/>
  <path d="M0 240 H1200" stroke="white"/>
  <path d="M0 300 H1200" stroke="white"/>
  <path d="M0 360 H1200" stroke="white"/>
  <path d="M0 420 H1200" stroke="white"/>
  <path d="M0 480 H1200" stroke="white"/>
  <path d="M0 540 H1200" stroke="white"/>
  <path d="M0 600 H1200" stroke="white"/>

  <path d="M100 0 V720" stroke="white"/>
  <path d="M200 0 V720" stroke="white"/>
  <path d="M300 0 V720" stroke="white"/>
  <path d="M400 0 V720" stroke="white"/>
  <path d="M500 0 V720" stroke="white"/>
  <path d="M600 0 V720" stroke="white"/>
  <path d="M700 0 V720" stroke="white"/>
  <path d="M800 0 V720" stroke="white"/>
  <path d="M900 0 V720" stroke="white"/>
  <path d="M1000 0 V720" stroke="white"/>
  <path d="M1100 0 V720" stroke="white"/>

</g>

<!-- TOP COMMAND -->

<rect x="20" y="10" width="360" height="42" rx="10" fill="#111827"/>

<text x="45"
      y="38"
      fill="#E2E8F0"
      font-size="18"
      font-family="monospace"
      font-weight="bold">
⚡ $ cat tech-stack.md
</text>

<!-- TERMINAL -->

<rect x="100"
      y="120"
      width="1000"
      height="500"
      rx="20"
      fill="#0F172A"
      stroke="#1E293B"
      stroke-width="2"/>

<!-- HEADER -->

<rect x="100"
      y="120"
      width="1000"
      height="52"
      rx="20"
      fill="url(#header)"/>

<!-- DOTS -->

<circle cx="130" cy="146" r="8" fill="#FF5F56"/>
<circle cx="155" cy="146" r="8" fill="#FFBD2E"/>
<circle cx="180" cy="146" r="8" fill="#27C93F"/>

<!-- TITLE -->

<text x="600"
      y="153"
      fill="#CBD5E1"
      font-size="17"
      font-family="monospace"
      text-anchor="middle">
piyush-0930@github ~ skills.sh
</text>

<!-- COMMAND -->

<text x="125"
      y="215"
      fill="#FF5F56"
      font-size="22"
      font-family="monospace">
$ ./skill-proficiency
</text>

<!-- PYTHON -->

<text x="125" y="265" fill="#FFFFFF" font-size="18" font-family="monospace">
Python
</text>

<rect x="125" y="280" width="800" height="16" rx="8" fill="#1E293B"/>
<rect x="125" y="280" width="720" height="16" rx="8" fill="url(#pythonBar)"/>

<text x="950" y="294" fill="#FACC15" font-size="16" font-family="monospace">
90%
</text>

<!-- JS -->

<text x="125" y="345" fill="#FFFFFF" font-size="18" font-family="monospace">
TS / JS
</text>

<rect x="125" y="360" width="800" height="16" rx="8" fill="#1E293B"/>
<rect x="125" y="360" width="680" height="16" rx="8" fill="url(#jsBar)"/>

<text x="950" y="374" fill="#60A5FA" font-size="16" font-family="monospace">
85%
</text>

<!-- REACT -->

<text x="125" y="425" fill="#FFFFFF" font-size="18" font-family="monospace">
React / Next.js
</text>

<rect x="125" y="440" width="800" height="16" rx="8" fill="#1E293B"/>
<rect x="125" y="440" width="640" height="16" rx="8" fill="url(#reactBar)"/>

<text x="950" y="454" fill="#FACC15" font-size="16" font-family="monospace">
80%
</text>

<!-- NODE -->

<text x="125" y="505" fill="#FFFFFF" font-size="18" font-family="monospace">
Node.js / Express
</text>

<rect x="125" y="520" width="800" height="16" rx="8" fill="#1E293B"/>
<rect x="125" y="520" width="620" height="16" rx="8" fill="url(#nodeBar)"/>

<text x="950" y="534" fill="#22C55E" font-size="16" font-family="monospace">
78%
</text>

<!-- DATABASES -->

<text x="125" y="585" fill="#FFFFFF" font-size="18" font-family="monospace">
Databases (SQL / NoSQL)
</text>

<rect x="125" y="600" width="800" height="16" rx="8" fill="#1E293B"/>
<rect x="125" y="600" width="560" height="16" rx="8" fill="url(#dbBar)"/>

<text x="950" y="614" fill="#C084FC" font-size="16" font-family="monospace">
70%
</text>

<!-- FOOTER -->

<circle cx="125" cy="655" r="4" fill="#22C55E"/>

<text x="140"
      y="660"
      fill="#22C55E"
      font-size="15"
      font-family="monospace">
main
</text>

<text x="1030"
      y="660"
      fill="#22C55E"
      font-size="15"
      font-family="monospace"
      text-anchor="end">
learning_continues.sh
</text>

</svg>